USFL
nRows=121
nColumns=2
inDegrees=yes
endheader
time	med_gas_r	
2.50504	 47.709458	
2.57661	 47.567310	
2.64819	 47.654851	
2.71976	 47.649701	
2.79133	 47.714067	
2.8629	 47.855411	
2.93448	 47.860778	
3.00605	 47.779279	
3.07762	 47.685854	
3.14919	 47.779219	
3.22077	 47.748602	
3.29234	 47.696658	
3.36391	 47.684373	
3.43548	 47.642442	
3.50706	 47.813374	
3.57863	 47.793166	
3.6502	 47.860538	
3.72177	 47.846138	
3.79335	 47.594009	
3.86492	 47.493779	
3.93649	 47.635973	
4.00806	 47.678784	
4.07964	 47.588852	
4.15121	 47.616267	
4.22278	 47.633361	
4.29435	 47.538311	
4.36593	 47.512277	
4.4375	 47.624902	
4.50907	 47.599117	
4.58065	 47.688894	
4.65222	 47.604877	
4.72379	 47.692105	
4.79536	 47.750588	
4.86694	 47.663702	
4.93851	 47.831894	
5.01008	 47.891934	
5.08165	 44.043763	
5.15323	 40.308765	
5.2248	 37.592532	
5.29637	 32.442887	
5.36794	 28.884899	
5.43952	 26.437665	
5.51109	 25.990232	
5.58266	 25.249904	
5.65423	 24.165336	
5.72581	 24.342266	
5.79738	 24.248041	
5.86895	 23.916881	
5.94052	 23.956589	
6.0121	 23.860752	
6.08367	 23.870226	
6.15524	 23.653039	
6.22681	 23.837673	
6.29839	 23.605307	
6.36996	 24.029268	
6.44153	 23.980311	
6.5131	 23.990913	
6.58468	 24.000256	
6.65625	 24.161217	
6.72782	 23.936225	
6.7994	 23.952247	
6.87097	 23.948091	
6.94254	 23.744274	
7.01411	 23.793179	
7.08569	 23.774191	
7.15726	 23.763814	
7.22883	 23.697898	
7.3004	 23.655109	
7.37198	 23.660169	
7.44355	 23.691613	
7.51512	 23.686387	
7.58669	 23.840036	
7.65827	 23.769574	
7.72984	 23.746930	
7.80141	 23.888579	
7.87298	 23.778791	
7.94456	 23.809849	
8.01613	 23.865311	
8.0877	 23.691886	
8.15927	 23.877042	
8.23085	 23.806889	
8.30242	 23.900156	
8.37399	 23.849242	
8.44556	 23.815906	
8.51714	 23.844721	
8.58871	 23.822856	
8.66028	 23.829083	
8.73185	 23.839111	
8.80343	 23.757363	
8.875	 23.734198	
8.94657	 23.882806	
9.01815	 23.740919	
9.08972	 24.025477	
9.16129	 23.820907	
9.23286	 23.833982	
9.30444	 24.021178	
9.37601	 23.704624	
9.44758	 23.583822	
9.51915	 23.473849	
9.59073	 23.489239	
9.6623	 23.792271	
9.73387	 23.798376	
9.80544	 23.659752	
9.87702	 24.531598	
9.94859	 26.360152	
10.0202	 28.660756	
10.0917	 31.572328	
10.1633	 34.859438	
10.2349	 38.874570	
10.3065	 39.307757	
10.378	 39.598852	
10.4496	 39.519495	
10.5212	 39.353750	
10.5927	 39.500062	
10.6643	 42.513116	
10.7359	 42.801110	
10.8075	 43.271711	
10.879	 42.786599	
10.9506	 43.119347	
11.0222	 43.145534	
11.0937	 43.659774	
